<svg width="127" height="49" viewBox="0 0 127 49" fill="none" xmlns="http://www.w3.org/2000/svg">
<path d="M9.20898 22.957H10.5531V25.8174L12.8074 22.957H14.4156L11.6802 26.1994L14.4156 29.5525H12.8074L10.5531 26.6639V29.5525H9.20898V22.957Z" fill="#1D1D1B"/>
<path d="M23.5322 22.957H25.2772C25.7299 22.957 27.7979 22.957 27.7979 24.6949C27.8005 24.9587 27.7269 25.2176 27.586 25.4405C27.445 25.6635 27.2427 25.841 27.0033 25.9518C27.3577 26.0413 27.6719 26.2469 27.8958 26.5358C28.1198 26.8247 28.2406 27.1803 28.2389 27.5458C28.2389 28.489 27.6706 29.5525 25.3456 29.5525H23.5322V22.957ZM25.5036 25.4967C26.3855 25.4967 26.4468 24.9873 26.4468 24.8199C26.4468 24.1762 25.7912 24.1408 25.5036 24.1408H24.8763V25.4967H25.5036ZM25.7394 28.3664C25.895 28.3664 26.8854 28.3664 26.8854 27.5364C26.8854 27.2864 26.7887 26.6828 25.7394 26.6828H24.8669V28.3664H25.7394Z" fill="#1D1D1B"/>
<path d="M39.8849 22.957H40.9626L43.9832 29.5596H42.5024L41.7572 27.8571H39.0903L38.3451 29.5596H36.8643L39.8849 22.957ZM41.2479 26.6639L40.4226 24.7397L39.5996 26.6639H41.2479Z" fill="#1D1D1B"/>
<path d="M52.9648 22.957H54.9951C57.3178 22.957 57.589 24.3907 57.589 25.0156C57.589 25.8433 57.0985 27.0553 54.9951 27.0553H54.3089V29.5525H52.9648V22.957ZM54.3089 25.8716H55.1036C55.4549 25.8716 56.2496 25.8174 56.2496 25.0062C56.2496 24.195 55.4549 24.1408 55.1036 24.1408H54.3089V25.8716Z" fill="#1D1D1B"/>
<path d="M67.4257 24.1409H66.084V22.9619H70.1139V24.1409H68.7698V29.5645H67.4257V24.1409Z" fill="#1D1D1B"/>
<path d="M81.0634 22.957H82.1434L85.1617 29.5596H83.6808L82.9357 27.8571H80.2758L79.5307 29.5596H78.0498L81.0634 22.957ZM82.4264 26.6639L81.6034 24.7397L80.7804 26.6639H82.4264Z" fill="#1D1D1B"/>
<path d="M100.472 29.5527H98.9911L97.0222 24.6504L95.0414 29.5527H93.5605L96.4327 22.9502H97.6117L100.472 29.5527Z" fill="#1D1D1B"/>
<path d="M110.795 22.9573V25.4969H111.878C113.672 25.4969 114.28 26.5392 114.28 27.5295C114.28 28.7321 113.29 29.5527 111.878 29.5527H109.451V22.9502L110.795 22.9573ZM110.795 28.3666H111.878C112.495 28.3666 112.927 28.0554 112.927 27.5295C112.927 27.0037 112.502 26.6924 111.878 26.6924H110.788L110.795 28.3666ZM115.011 22.9573H116.358V29.5598H115.014L115.011 22.9573Z" fill="#1D1D1B"/>
<path d="M40.046 19.2889H47.8464L54.166 5.55563V3.37207H28.541V10.7716H44.1702L40.046 19.2889Z" fill="#93DACF"/>
<path d="M8.67057 13.0755V19.2889H16.1244V3.37207H13.6414L0 8.2839L1.76618 15.4996L8.67057 13.0755Z" fill="#93DACF"/>
<path d="M81.6303 19.2889H89.4308L95.748 5.55563V3.37207H70.123V10.7716H85.7522L81.6303 19.2889Z" fill="#93DACF"/>
<path d="M112.882 19.2889H120.683L127 5.55563V3.37207H101.375V10.7716H117.004L112.882 19.2889Z" fill="#93DACF"/>
<path d="M75.4576 33.4746L70.9561 43.3926H79.0748L83.4467 33.4746H75.4576Z" fill="#93DACF"/>
<path d="M106.705 33.4746L102.206 43.3926H110.322L114.694 33.4746H106.705Z" fill="#93DACF"/>
<path d="M33.8654 33.4746L29.3662 43.3926H37.485L41.8568 33.4746H33.8654Z" fill="#93DACF"/>
<path d="M16.1241 33.4746H8.66797V43.3926H16.1241V33.4746Z" fill="#93DACF"/>
<path d="M45.6826 48.611H46.3028L51.8041 35.604H51.184L45.6826 48.611Z" fill="#93DACF"/>
<path d="M64.5008 0L57.6035 16.306H58.2237L65.1234 0H64.5008Z" fill="#93DACF"/>
</svg>
