<svg width="14" height="20" viewBox="0 0 14 20" fill="none" xmlns="http://www.w3.org/2000/svg">
<path fill-rule="evenodd" clip-rule="evenodd" d="M6.14186 0.0413862C4.59043 0.255628 3.15992 1.00739 2.0532 2.18999C0.933892 3.38599 0.238647 4.9263 0.0494696 6.62918C-0.0501168 7.52598 -0.00105314 8.32193 0.212164 9.26834C0.835509 12.0348 2.86769 15.4766 5.94863 18.9835C6.74321 19.888 6.85925 20 7.00184 20C7.1402 20 7.35743 19.7843 8.20253 18.8076C11.5976 14.8839 13.5976 11.2389 13.9474 8.33784C14.2135 6.13067 13.4595 3.81877 11.9417 2.18823C10.8997 1.06881 9.61841 0.363414 8.1117 0.0796214C7.64809 -0.00771746 6.6391 -0.0273042 6.14186 0.0413862ZM7.78339 4.1582C8.97055 4.50662 9.80357 5.40929 10.1212 6.69134C10.2211 7.09476 10.2155 7.91209 10.11 8.33006C9.8955 9.17925 9.41271 9.9063 8.76507 10.3553C6.68451 11.7978 3.95957 10.3336 3.79961 7.68725C3.74099 6.71788 4.0794 5.77401 4.73889 5.06716C5.21946 4.55212 5.76595 4.24139 6.43369 4.10354C6.77593 4.03286 7.44925 4.06015 7.78339 4.1582Z" fill="#436B65"/>
</svg>
