<svg width="102" height="48" viewBox="0 0 102 48" fill="none" xmlns="http://www.w3.org/2000/svg">
<path d="M7.3457 23.0742H8.50196V25.366L10.839 23.0742H12.2164L9.46929 25.6739L12.2164 28.3586H10.839L8.50196 26.0461V28.3586H7.35137L7.3457 23.0742Z" fill="#96D5D0"/>
<path d="M18.1921 23.0742H19.6866C19.7319 23.0742 20.1702 23.0742 20.2534 23.0742C20.8391 23.0912 22.2315 23.2348 22.2315 24.4629C22.2299 24.679 22.1645 24.8899 22.0435 25.0691C21.9225 25.2482 21.7513 25.3876 21.5513 25.4699C22.222 25.6588 22.6094 26.1557 22.6094 26.7489C22.6094 27.4914 22.1484 28.3076 20.2968 28.353H18.1997L18.1921 23.0742ZM20.2572 25.109C21.0129 25.109 21.0733 24.7028 21.0733 24.5668C21.0733 24.0529 20.5065 24.0245 20.2572 24.0245H19.3427V25.109H20.2572ZM20.4688 27.4083C20.6029 27.4083 21.4512 27.4083 21.4512 26.7452C21.4512 26.5449 21.3662 26.0593 20.4688 26.0593H19.3352V27.4083H20.4688Z" fill="#96D5D0"/>
<path d="M31.0752 23.0742H31.9991L34.5875 28.3643H33.3179L32.6849 26.9945H30.3951L29.7565 28.3586H28.4888L31.0752 23.0742ZM32.2428 26.0461L31.5381 24.5025L30.8315 26.0461H32.2428Z" fill="#96D5D0"/>
<path d="M41.9014 23.0742H43.6433C45.6346 23.0742 45.8708 24.2248 45.8708 24.7236C45.8708 25.3886 45.4495 26.3597 43.6433 26.3597H43.0557V28.3586H41.9051L41.9014 23.0742ZM43.052 25.4094H43.7321C44.0344 25.4094 44.7164 25.366 44.7164 24.7179C44.7164 24.0699 44.0344 24.0245 43.7321 24.0245H43.052V25.4094Z" fill="#96D5D0"/>
<path d="M53.1596 24.0247H51.6311V23.0801H55.8386V24.0247H54.3101V28.3588H53.1596V24.0247Z" fill="#96D5D0"/>
<path d="M64.4707 23.0742H65.3946L67.983 28.3643H66.7134L66.0748 27.0002H63.7906L63.152 28.3643H61.8843L64.4707 23.0742ZM65.6383 26.0461L64.9336 24.5025L64.2365 26.0461H65.6383Z" fill="#96D5D0"/>
<path d="M80.7153 28.3589H79.4475L77.7472 24.431L76.0468 28.3589H74.7791L77.2352 23.0688H78.2422L80.7153 28.3589Z" fill="#96D5D0"/>
<path d="M88.8071 23.0745V25.1093H89.731C91.267 25.1093 91.7884 25.9463 91.7884 26.7379C91.7884 27.7014 90.9401 28.3589 89.731 28.3589H87.6641V23.0688L88.8071 23.0745ZM88.8071 27.4086H89.7423C90.2713 27.4086 90.6416 27.1592 90.6416 26.7379C90.6416 26.3166 90.2638 26.0596 89.7423 26.0596H88.8109L88.8071 27.4086ZM92.4195 23.0745H93.5701V28.3646H92.4195V23.0745Z" fill="#96D5D0"/>
<path d="M60.528 31.4121L56.9912 39.3586H63.4168L66.9517 31.4121H60.528Z" fill="white"/>
<path d="M76.7836 7.29492H76.7307H71.2611H56.2808V13.267H68.6029L65.5856 20.0459H72.0093L76.7836 9.31649V7.29492Z" fill="white"/>
<path d="M85.5649 31.4121L82.03 39.3586H88.4537L91.9886 31.4121H85.5649Z" fill="white"/>
<path d="M101.821 7.29492H101.768H96.2982H81.3179V13.267H93.64L90.6227 20.0459H97.0464L101.821 9.31649V7.29492Z" fill="white"/>
<path d="M7.04124 15.0676V20.0459H13.0134V7.29492H11.022L0.0942383 11.2304L1.50933 17.0117L7.04124 15.0676Z" fill="white"/>
<path d="M13.0155 31.4121H7.0415V39.3586H13.0155V31.4121Z" fill="white"/>
<path d="M27.2082 31.4121L23.6714 39.3586H30.0969L33.6318 31.4121H27.2082Z" fill="white"/>
<path d="M43.4638 7.29492H43.4109H37.9394H22.9609V13.267H35.283L32.2658 20.0459H38.6895L43.4638 9.31649V7.29492Z" fill="white"/>
<path d="M46.6283 17.6578L52.3284 4.59131H51.8334L46.1333 17.6578H46.6283Z" fill="white"/>
<path d="M39.0993 33.7773L34.8389 43.5394H35.3339L39.5924 33.7773H39.0993Z" fill="white"/>
</svg>
