<svg width="35" height="35" viewBox="0 0 35 35" fill="none" xmlns="http://www.w3.org/2000/svg">
<rect width="35" height="35" rx="17.5" fill="#26538E"/>
<path d="M24.1114 22.6875C23.7429 21.8148 23.2083 21.0221 22.5372 20.3535C21.8681 19.683 21.0755 19.1484 20.2032 18.7793C20.1954 18.7754 20.1876 18.7734 20.1797 18.7695C21.3965 17.8906 22.1875 16.459 22.1875 14.8438C22.1875 12.168 20.0196 10 17.3438 10C14.668 10 12.5 12.168 12.5 14.8438C12.5 16.459 13.2911 17.8906 14.5079 18.7715C14.5 18.7754 14.4922 18.7773 14.4844 18.7812C13.6094 19.1504 12.8243 19.6797 12.1504 20.3555C11.48 21.0245 10.9454 21.8171 10.5762 22.6895C10.2136 23.5435 10.018 24.4591 10 25.3867C9.99953 25.4076 10.0032 25.4283 10.0108 25.4477C10.0184 25.4671 10.0298 25.4848 10.0444 25.4997C10.059 25.5147 10.0764 25.5265 10.0956 25.5346C10.1148 25.5427 10.1354 25.5469 10.1563 25.5469H11.3282C11.4141 25.5469 11.4825 25.4785 11.4844 25.3945C11.5235 23.8867 12.129 22.4746 13.1993 21.4043C14.3067 20.2969 15.7774 19.6875 17.3438 19.6875C18.9102 19.6875 20.3809 20.2969 21.4883 21.4043C22.5586 22.4746 23.1641 23.8867 23.2032 25.3945C23.2051 25.4805 23.2735 25.5469 23.3594 25.5469H24.5313C24.5522 25.5469 24.5728 25.5427 24.592 25.5346C24.6112 25.5265 24.6286 25.5147 24.6432 25.4997C24.6578 25.4848 24.6692 25.4671 24.6768 25.4477C24.6844 25.4283 24.6881 25.4076 24.6876 25.3867C24.668 24.4531 24.4747 23.5449 24.1114 22.6875ZM17.3438 18.2031C16.4473 18.2031 15.6036 17.8535 14.9688 17.2188C14.334 16.584 13.9844 15.7402 13.9844 14.8438C13.9844 13.9473 14.334 13.1035 14.9688 12.4688C15.6036 11.834 16.4473 11.4844 17.3438 11.4844C18.2403 11.4844 19.084 11.834 19.7188 12.4688C20.3536 13.1035 20.7032 13.9473 20.7032 14.8438C20.7032 15.7402 20.3536 16.584 19.7188 17.2188C19.084 17.8535 18.2403 18.2031 17.3438 18.2031Z" fill="white"/>
</svg>
