<svg width="33" height="33" viewBox="0 0 33 33" fill="none" xmlns="http://www.w3.org/2000/svg">
<path fill-rule="evenodd" clip-rule="evenodd" d="M9.88644 0.554502C11.5971 0.475752 12.1425 0.458252 16.5 0.458252C20.8575 0.458252 21.4029 0.47721 23.1121 0.554502C24.8212 0.631794 25.9879 0.904502 27.0087 1.29971C28.0777 1.70367 29.0475 2.33513 29.8496 3.15179C30.6662 3.95242 31.2962 4.92075 31.6987 5.99117C32.0954 7.012 32.3666 8.17867 32.4454 9.88492C32.5241 11.5985 32.5416 12.1439 32.5416 16.4999C32.5416 20.8574 32.5227 21.4028 32.4454 23.1135C32.3681 24.8197 32.0954 25.9864 31.6987 27.0072C31.2962 28.0778 30.6652 29.0477 29.8496 29.8495C29.0475 30.6662 28.0777 31.2962 27.0087 31.6987C25.9879 32.0953 24.8212 32.3666 23.115 32.4453C21.4029 32.5241 20.8575 32.5416 16.5 32.5416C12.1425 32.5416 11.5971 32.5226 9.88644 32.4453C8.18019 32.368 7.01352 32.0953 5.99269 31.6987C4.92216 31.2961 3.95222 30.6651 3.1504 29.8495C2.33428 29.0484 1.70273 28.0789 1.29977 27.0087C0.904563 25.9878 0.633313 24.8212 0.554563 23.1149C0.475813 21.4014 0.458313 20.856 0.458313 16.4999C0.458313 12.1424 0.477271 11.597 0.554563 9.88783C0.631855 8.17867 0.904563 7.012 1.29977 5.99117C1.70333 4.92087 2.33536 3.95142 3.15185 3.15034C3.95254 2.3344 4.9215 1.70286 5.99123 1.29971C7.01206 0.904502 8.17873 0.633252 9.88498 0.554502H9.88644ZM22.9823 3.442C21.2906 3.36471 20.7831 3.34867 16.5 3.34867C12.2169 3.34867 11.7094 3.36471 10.0177 3.442C8.4529 3.51346 7.60415 3.7745 7.03831 3.99471C6.29019 4.28638 5.75498 4.632 5.19352 5.19346C4.66129 5.71124 4.2517 6.34158 3.99477 7.03825C3.77456 7.60408 3.51352 8.45283 3.44206 10.0176C3.36477 11.7093 3.34873 12.2168 3.34873 16.4999C3.34873 20.783 3.36477 21.2905 3.44206 22.9822C3.51352 24.547 3.77456 25.3958 3.99477 25.9616C4.25144 26.6572 4.66123 27.2887 5.19352 27.8064C5.71123 28.3387 6.34269 28.7485 7.03831 29.0051C7.60415 29.2253 8.4529 29.4864 10.0177 29.5578C11.7094 29.6351 12.2154 29.6512 16.5 29.6512C20.7846 29.6512 21.2906 29.6351 22.9823 29.5578C24.5471 29.4864 25.3958 29.2253 25.9616 29.0051C26.7098 28.7135 27.245 28.3678 27.8064 27.8064C28.3387 27.2887 28.7485 26.6572 29.0052 25.9616C29.2254 25.3958 29.4864 24.547 29.5579 22.9822C29.6352 21.2905 29.6512 20.783 29.6512 16.4999C29.6512 12.2168 29.6352 11.7093 29.5579 10.0176C29.4864 8.45283 29.2254 7.60408 29.0052 7.03825C28.7135 6.29013 28.3679 5.75492 27.8064 5.19346C27.2886 4.66127 26.6583 4.25168 25.9616 3.99471C25.3958 3.7745 24.5471 3.51346 22.9823 3.442ZM14.451 21.4451C15.5953 21.9215 16.8695 21.9858 18.0559 21.627C19.2423 21.2683 20.2674 20.5088 20.9561 19.4782C21.6447 18.4476 21.9542 17.2099 21.8317 15.9765C21.7092 14.7431 21.1623 13.5905 20.2844 12.7155C19.7247 12.1562 19.048 11.728 18.303 11.4616C17.5579 11.1952 16.7631 11.0973 15.9757 11.175C15.1883 11.2526 14.4279 11.5039 13.7493 11.9107C13.0706 12.3175 12.4906 12.8698 12.051 13.5276C11.6114 14.1855 11.3232 14.9326 11.207 15.7153C11.0908 16.4979 11.1496 17.2966 11.3791 18.0538C11.6086 18.811 12.0032 19.5079 12.5344 20.0943C13.0655 20.6807 13.7201 21.1421 14.451 21.4451ZM10.6696 10.6695C11.4352 9.90384 12.3442 9.29648 13.3446 8.88211C14.345 8.46774 15.4172 8.25446 16.5 8.25446C17.5828 8.25446 18.655 8.46774 19.6554 8.88211C20.6558 9.29648 21.5647 9.90384 22.3304 10.6695C23.0961 11.4352 23.7034 12.3441 24.1178 13.3445C24.5322 14.3449 24.7454 15.4171 24.7454 16.4999C24.7454 17.5827 24.5322 18.6549 24.1178 19.6553C23.7034 20.6557 23.0961 21.5647 22.3304 22.3303C20.7841 23.8767 18.6868 24.7454 16.5 24.7454C14.3131 24.7454 12.2159 23.8767 10.6696 22.3303C9.12324 20.784 8.25453 18.6867 8.25453 16.4999C8.25453 14.3131 9.12324 12.2158 10.6696 10.6695ZM26.5741 9.48242C26.7639 9.30344 26.9158 9.0882 27.0208 8.84946C27.1259 8.61072 27.182 8.35333 27.1858 8.09252C27.1896 7.83172 27.141 7.5728 27.043 7.3311C26.9449 7.0894 26.7994 6.86983 26.6149 6.68539C26.4305 6.50095 26.2109 6.3554 25.9692 6.25734C25.7275 6.15928 25.4686 6.11072 25.2078 6.11452C24.947 6.11832 24.6896 6.17441 24.4508 6.27948C24.2121 6.38454 23.9969 6.53643 23.8179 6.72617C23.4698 7.09517 23.2792 7.5853 23.2866 8.09252C23.294 8.59975 23.4988 9.08412 23.8575 9.44281C24.2162 9.80151 24.7006 10.0063 25.2078 10.0137C25.715 10.0211 26.2051 9.83051 26.5741 9.48242Z" fill="white"/>
</svg>
