<svg width="54" height="54" viewBox="0 0 54 54" fill="none" xmlns="http://www.w3.org/2000/svg">
<path d="M27 3.375C13.9535 3.375 3.375 13.9535 3.375 27C3.375 40.0465 13.9535 50.625 27 50.625C40.0465 50.625 50.625 40.0465 50.625 27C50.625 13.9535 40.0465 3.375 27 3.375ZM27 46.6172C16.1684 46.6172 7.38281 37.8316 7.38281 27C7.38281 16.1684 16.1684 7.38281 27 7.38281C37.8316 7.38281 46.6172 16.1684 46.6172 27C46.6172 37.8316 37.8316 46.6172 27 46.6172Z" fill="url(#paint0_linear_48_4127)"/>
<path d="M27 46.6172C16.1684 46.6172 7.38281 37.8316 7.38281 27C7.38281 16.1684 16.1684 7.38281 27 7.38281C37.8316 7.38281 46.6172 16.1684 46.6172 27C46.6172 37.8316 37.8316 46.6172 27 46.6172Z" fill="url(#paint1_linear_48_4127)"/>
<path d="M37.9371 26.3197L22.3225 14.9818C22.1972 14.89 22.049 14.8348 21.8942 14.8223C21.7394 14.8098 21.5842 14.8405 21.4459 14.9111C21.3076 14.9816 21.1915 15.0892 21.1107 15.2218C21.0299 15.3544 20.9875 15.5068 20.9883 15.6621V38.3379C20.9883 39.0287 21.7688 39.4189 22.3225 39.0181L37.9371 27.6802C38.0449 27.6026 38.1327 27.5004 38.1933 27.3821C38.2538 27.2638 38.2854 27.1328 38.2854 27C38.2854 26.8671 38.2538 26.7361 38.1933 26.6178C38.1327 26.4996 38.0449 26.3974 37.9371 26.3197ZM24.3527 33.3861V20.6138L33.1436 27L24.3527 33.3861Z" fill="white"/>
<defs>
<linearGradient id="paint0_linear_48_4127" x1="3.375" y1="3.375" x2="52.2426" y2="5.11183" gradientUnits="userSpaceOnUse">
<stop stop-color="#CFA0E4"/>
<stop offset="1" stop-color="#AB78C1"/>
</linearGradient>
<linearGradient id="paint1_linear_48_4127" x1="3.375" y1="3.375" x2="52.2426" y2="5.11183" gradientUnits="userSpaceOnUse">
<stop stop-color="#CFA0E4"/>
<stop offset="1" stop-color="#AB78C1"/>
</linearGradient>
</defs>
</svg>
