<svg width="35" height="25" viewBox="0 0 35 25" fill="none" xmlns="http://www.w3.org/2000/svg">
<path d="M34.2708 4.48945C34.0726 3.78249 33.6866 3.14245 33.1537 2.63736C32.6058 2.11674 31.9343 1.74433 31.2025 1.55528C28.4637 0.833403 17.4912 0.833404 17.4912 0.833404C12.9169 0.78136 8.34373 1.01026 3.79748 1.51882C3.06568 1.72184 2.39539 2.10257 1.84623 2.62715C1.30665 3.14632 0.915818 3.78653 0.711651 4.48799C0.221203 7.13011 -0.0170896 9.81286 -1.54685e-05 12.5001C-0.0175155 15.1849 0.220193 17.8667 0.711651 20.5122C0.911443 21.2107 1.30082 21.848 1.84186 22.3628C2.3829 22.8776 3.05665 23.2494 3.79748 23.4463C6.57269 24.1667 17.4912 24.1667 17.4912 24.1667C22.0714 24.2189 26.6504 23.99 31.2025 23.4813C31.9343 23.2923 32.6058 22.9199 33.1537 22.3992C33.6864 21.8943 34.072 21.2541 34.2694 20.5472C34.7726 17.906 35.0173 15.2222 35 12.5336C35.0378 9.83366 34.7934 7.13714 34.2708 4.48799V4.48945ZM14.0029 17.4934V7.5082L23.1321 12.5015L14.0029 17.4934Z" fill="white"/>
</svg>
